<svg viewBox="0 0 39 17" version="1.1" xmlns="http://www.w3.org/2000/svg">
    <!-- Generator: Sketch 52.6 (67491) - http://www.bohemiancoding.com/sketch -->
    <g id="Page-1" stroke="none" stroke-width="1" fill="#faebd7" fill-rule="evenodd">
        <g id="Custom-Preset" transform="translate(-85.000000, -14.000000)" fill="#faebd7">
            <path d="M86.9439697,15.2380371 C88.1950684,14.4729004 88.5974121,18.574707 92.6862793,19.3000488 C94.9268392,19.6466471 97.1037598,19.0847168 99.217041,17.6142578 C100.010498,16.0853678 100.771281,15.0092367 101.49939,14.3858643 C102.312459,14.0980225 103.244954,14.3820801 104.296875,15.2380371 L109.993164,17.2463379 L115.44165,19.3000488 C114.735221,20.1781692 114.273795,21.0651321 114.057373,21.9609375 C113.81237,22.9750442 113.81237,24.0710322 114.057373,25.2489014 L106.327881,25.6022949 C102.915853,25.4213053 99.4889323,25.0900065 96.0471191,24.6083984 C92.5396322,24.6083984 88.9820557,24.472819 85.3743896,24.2016602 C84.8542887,19.1616211 85.3774821,16.1737467 86.9439697,15.2380371 Z M114.746582,25.1152344 C114.538227,24.1463381 114.538227,23.2012697 114.746582,22.2800293 C114.993327,21.224528 115.414714,20.3064372 116.010742,19.5257568 C117.099837,19.4107335 118.083439,19.4891026 118.961548,19.7608643 C120.756632,20.0807699 121.956991,20.678304 122.562622,21.5534668 C122.91866,22.3361816 121.805379,23.2139893 119.222778,24.1868896 C117.965415,24.7598697 116.47335,25.0693179 114.746582,25.1152344 Z M85.2497559,24.927002 L91.1033936,25.3543701 L98.630249,25.7408447 C101.359456,26.1171647 104.154052,26.3380102 107.014038,26.4033813 C109.42342,26.4584529 111.898193,26.3580501 114.438354,26.1021729 C117.220949,25.7122301 119.266929,25.2426256 120.576294,24.6933594 C122.187177,24.0176093 123.061444,23.2621975 123.199097,22.427124 C123.647092,23.1815181 123.905555,23.9369299 123.974487,24.6933594 C123.974487,26.4033813 123.717407,26.9581299 123.436279,27.7078857 C122.922265,28.2642441 121.657414,28.8226344 119.641724,29.3830566 C117.754633,29.9842878 115.557693,30.3164818 113.050903,30.3796387 C108.784174,30.4871361 104.207595,30.3255964 99.321167,29.8950195 L89.2919922,29.3830566 C87.101888,29.3830566 85.8170166,29.178833 85.4373779,28.7703857 C85.3004964,28.1750081 85.2379557,26.8938802 85.2497559,24.927002 Z" id="casual"></path>
        </g>
    </g>
</svg>