<svg viewBox="0 0 40 27" version="1.1" xmlns="http://www.w3.org/2000/svg">
    <!-- Generator: Sketch 52.6 (67491) - http://www.bohemiancoding.com/sketch -->
    <g id="Page-1" stroke="none" stroke-width="1" fill="#faebd7" fill-rule="evenodd">
        <g id="Custom-Preset" transform="translate(0.000000, -3.000000)" fill="#faebd7">
            <path d="M5.25971141,8.36370551 C7.07679653,6.62535769 9.16141136,5.34223878 11.5135559,4.51434878 C15.0417727,3.27251379 17.6732984,3.8499094 18.4324936,4.51434878 C19.1916887,5.17878816 19.1916887,10.5429649 21.361031,13.2011907 C22.8072592,14.9733412 26.6673611,16.8634496 32.9413366,18.8715158 C34.9126416,19.1094249 36.348305,19.3791395 37.2483268,19.6806595 C38.1483487,19.9821795 38.7052127,20.6486199 38.9189189,21.6799807 C37.4420279,22.2790187 36.2023412,23.0911113 35.1998589,24.1162584 C33.6850215,25.2448259 28.9188646,24.7623728 25.0902523,24.7623728 C19.3357225,24.4210765 19.5096988,23.5520415 13.7581064,22.8445663 C8.67800014,22.2196873 3.68914527,22.2196873 3.42685501,22.0976644 C3.16456475,21.9756415 3.00769866,18.2426206 4.22706259,14.7772991 C4.5127423,12.6366439 4.85695858,10.4987794 5.25971141,8.36370551 Z M17.0160944,9.30491565 C17.4650518,9.30491565 17.8290037,8.94279112 17.8290037,8.49608787 C17.8290037,8.04938463 17.4650518,7.6872601 17.0160944,7.6872601 C16.567137,7.6872601 16.2031851,8.04938463 16.2031851,8.49608787 C16.2031851,8.94279112 16.567137,9.30491565 17.0160944,9.30491565 Z M20.918059,16.7461312 C21.3670164,16.7461312 21.7309682,16.3840067 21.7309682,15.9373034 C21.7309682,15.4906002 21.3670164,15.1284757 20.918059,15.1284757 C20.4691016,15.1284757 20.1051497,15.4906002 20.1051497,15.9373034 C20.1051497,16.3840067 20.4691016,16.7461312 20.918059,16.7461312 Z M24.4948598,18.3637868 C24.9438172,18.3637868 25.3077691,18.0016622 25.3077691,17.554959 C25.3077691,17.1082557 24.9438172,16.7461312 24.4948598,16.7461312 C24.0459024,16.7461312 23.6819505,17.1082557 23.6819505,17.554959 C23.6819505,18.0016622 24.0459024,18.3637868 24.4948598,18.3637868 Z M28.0716607,19.9814423 C28.5206181,19.9814423 28.8845699,19.6193178 28.8845699,19.1726146 C28.8845699,18.7259113 28.5206181,18.3637868 28.0716607,18.3637868 C27.6227033,18.3637868 27.2587514,18.7259113 27.2587514,19.1726146 C27.2587514,19.6193178 27.6227033,19.9814423 28.0716607,19.9814423 Z M31.9736252,20.9520357 C32.4225826,20.9520357 32.7865345,20.5899111 32.7865345,20.1432079 C32.7865345,19.6965046 32.4225826,19.3343801 31.9736252,19.3343801 C31.5246678,19.3343801 31.1607159,19.6965046 31.1607159,20.1432079 C31.1607159,20.5899111 31.5246678,20.9520357 31.9736252,20.9520357 Z M17.6664218,11.8931645 C18.1153792,11.8931645 18.4793311,11.53104 18.4793311,11.0843368 C18.4793311,10.6376335 18.1153792,10.275509 17.6664218,10.275509 C17.2174644,10.275509 16.8535125,10.6376335 16.8535125,11.0843368 C16.8535125,11.53104 17.2174644,11.8931645 17.6664218,11.8931645 Z M2.8968453,22.7027027 C3.50846387,23.2849362 8.13332974,23.3231103 11.1351524,23.5838613 C14.1369751,23.8446123 18.395765,24.9363594 20.3775307,25.3712599 C22.3592963,25.8061604 27.2562413,26.1110798 28.9975798,26.1110798 C30.7389183,26.1110798 33.1123301,25.9076195 34.7150784,25.3712599 C35.9296832,23.9561374 37.8326334,22.7027027 39.1824837,22.7027027 C39.7274946,23.2901418 40,24.1796608 40,25.3712599 C39.4549891,26.2271794 38.0982169,27.3468997 35.9296832,28.7304208 C35.3956493,28.4437471 34.7355403,28.5358697 33.9493563,29.0067885 C33.5643105,28.0779911 32.9879674,27.7067666 32.2203269,27.893115 C31.4526864,28.0794634 31.09844,28.6124808 31.1575877,29.4921671 L28.3122665,29.7297297 C28.1477188,28.7768501 27.6531167,28.3004103 26.82846,28.3004103 C26.0038034,28.3004103 25.5413861,28.7768501 25.4412081,29.7297297 L22.3592963,29.7297297 C22.3592963,28.7768501 21.9073764,28.3004103 21.0035365,28.3004103 C20.0996966,28.3004103 19.590867,28.7768501 19.4770478,29.7297297 L17.4030438,29.7297297 L16.9517633,28.3004103 L14.1369751,28.3004103 L13.582426,29.7297297 L11.9176597,29.7297297 C11.9176597,28.7768501 11.482738,28.3004103 10.6128947,28.3004103 C9.74305142,28.3004103 9.22516321,28.6976626 9.0592301,29.4921671 L6.44218682,29.2102784 C6.44218682,28.1458211 6.04712321,27.6135924 5.256996,27.6135924 C4.46686879,27.6135924 3.88402474,27.9858686 3.50846387,28.7304208 L1.64867024,27.893115 C1.50682248,25.0202792 1.92288083,23.2901418 2.8968453,22.7027027 Z M4.26513672,7.5645752 L3.14405188,12.4324324 C2.6022646,12.3581802 1.96971397,12.0076732 1.24640001,11.3809116 C0.469326232,10.5335593 0,8.80628755 0,8.08882635 C0.0482588915,7.07749216 0.6989345,6.39657751 1.47949222,6.49613048 C2.32136835,6.60350406 3.24991651,6.9596523 4.26513672,7.5645752 Z" id="hiking"></path>
        </g>
    </g>
</svg>