<svg viewBox="0 0 40 21" version="1.1" xmlns="http://www.w3.org/2000/svg">
    <!-- Generator: Sketch 52.6 (67491) - http://www.bohemiancoding.com/sketch -->
    <g id="Page-1" stroke="none" stroke-width="1" fill="#faebd7" fill-rule="evenodd">
        <g id="Custom-Preset" transform="translate(-43.000000, -9.000000)" fill="#faebd7">
            <path d="M43.7631836,22.5898438 L43.7631836,14.197998 C44.0470378,12.6284993 44.5520833,11.7416178 45.2783203,11.5373535 C46.5028076,11.5373535 47.5809326,12.7723389 49.2646484,13.1125488 C54.5145264,12.4273682 55.2810059,10.005127 59.7749023,9.30859375 C61.1335449,9.54296875 62.2856445,10.4468587 63.2312012,12.0202637 L60.6352539,15.1025391 L61.4616699,15.9492188 L64.2180176,12.9177246 L66.0074463,14.5743408 L63.6159668,17.6147461 L64.2180176,18.3271484 L67.0012207,15.4729004 L69.0012207,16.8725586 L66.4819336,20.0454102 L67.0012207,20.7939453 L70.0097656,17.6147461 C71.1748626,18.1125065 72.4567636,18.5290104 73.8554688,18.8642578 C77.2541504,19.6136475 78.1939697,19.6136475 80.1508789,20.0454102 C81.5183105,20.8051758 82.2922363,21.7675781 82.4726563,22.9326172 C80.4637044,23.873291 78.1703288,24.5345866 75.5925293,24.9165039 C71.7258301,25.4893799 68.5614014,25.4893799 65.0986328,25.4941406 C60.3273926,25.4893799 59.7749023,25.2069092 56.1938477,23.614502 C52.9160156,22.2116699 52.1975098,21.8864746 49.2646484,21.1850586 C47.2437337,20.9243164 45.4099121,21.3925781 43.7631836,22.5898438 Z M43.0270996,28.0373535 C42.8959961,27.1214193 43.0535482,26.1848551 43.4997559,25.2276611 C44.4448242,23.4541016 45.1821289,23.4541016 47.380249,22.9598389 C49.8705648,23.1281331 52.0431722,23.6490072 53.8980713,24.5224609 C56.3887939,25.5709635 59.0889893,26.4204508 61.9986572,27.0709229 C65.2374268,27.2922363 68.2161865,27.0709229 71.6647949,27.0709229 C75.4068197,26.8603923 79.1394857,26.186971 82.862793,25.0506592 C82.862793,26.1378988 81.5981852,27.2953288 79.0689697,28.5229492 C77.2132638,29.3759965 75.8355713,29.5474854 72.1762695,29.9631348 C66.936867,30.1819993 64.6298828,29.519043 59.793457,29.519043 C54.3498535,29.519043 53.0704346,29.519043 48.8134766,29.3256836 C46.2562994,29.0996988 44.327507,28.6702554 43.0270996,28.0373535 Z" id="running"></path>
        </g>
    </g>
</svg>